<svg width="164" height="43" viewBox="0 0 164 43" fill="none" xmlns="http://www.w3.org/2000/svg">
<path d="M34.7971 42.776H7.97888C3.57173 42.776 0 39.2043 0 34.7971V7.97889C0 3.57174 3.57173 0 7.97888 0H34.7971C39.2043 0 42.776 3.57174 42.776 7.97889V34.7971C42.776 39.2043 39.2043 42.776 34.7971 42.776Z" fill="black"/>
<path d="M29.0937 21.7816C29.8564 22.738 30.2439 23.8519 30.2439 25.1111C30.2439 26.9636 29.6264 28.4165 28.3914 29.4456C27.1565 30.4748 25.3888 31.0075 23.0883 31.0075H13.0391V9.39551H22.8462C25.0498 9.39551 26.7448 9.87981 27.9435 10.8363C29.1421 11.7928 29.7475 13.161 29.7475 14.9287C29.7475 16.2363 29.3964 17.3139 28.7063 18.1856C28.0161 19.0573 27.1081 19.6143 25.9821 19.8807C27.3018 20.1955 28.3309 20.8251 29.0937 21.7816ZM18.2574 18.234H21.6839C23.5 18.234 24.408 17.4592 24.408 15.9094C24.408 14.3596 23.4758 13.5847 21.6233 13.5847H18.2574V18.234V18.234ZM24.8923 24.3847C24.8923 23.6098 24.6381 23.0044 24.1296 22.5685C23.6211 22.1327 22.8946 21.9147 21.9623 21.9147H18.2695V26.7699H21.9987C23.9238 26.7578 24.8923 25.9708 24.8923 24.3847Z" fill="white"/>
<path d="M67.5612 31.0079L62.8877 22.8474H61.7012V31.0079H56.4707V9.3959H65.394C67.1011 9.3959 68.5541 9.68649 69.7285 10.2798C70.915 10.873 71.7989 11.6842 72.3921 12.7134C72.9854 13.7425 73.276 14.917 73.276 16.2488C73.276 17.8228 72.8401 19.1546 71.9805 20.2564C71.1087 21.3582 69.8617 22.1089 68.2029 22.5205L73.3365 31.02H67.5612V31.0079ZM61.7012 19.2757H64.9339C65.9751 19.2757 66.7379 19.0456 67.2222 18.5855C67.7065 18.1255 67.9608 17.4474 67.9608 16.5515C67.9608 15.6918 67.7065 15.0259 67.2101 14.5295C66.7137 14.0452 65.9509 13.791 64.9339 13.791H61.7012V19.2757Z" fill="black"/>
<path d="M96.9342 27.073H88.8342L87.4903 31.02H81.9934L89.9118 9.56542H95.9292L103.848 31.02H98.2902L96.9342 27.073ZM95.5902 23.0896L92.9024 15.147L90.1782 23.0896H95.5902Z" fill="black"/>
<path d="M132.7 31.0079H127.469L118.728 17.738V31.0079H113.497V9.39593H118.728L127.469 22.7869V9.39593H132.7V31.0079Z" fill="black"/>
<path d="M162.024 25.8017C161.116 27.4362 159.809 28.7196 158.114 29.6398C156.407 30.56 154.409 31.02 152.108 31.02H143.948V9.40805H152.108C154.433 9.40805 156.443 9.85603 158.126 10.752C159.821 11.6479 161.116 12.9071 162.024 14.5416C162.932 16.1762 163.38 18.0407 163.38 20.1717C163.38 22.2784 162.92 24.1551 162.024 25.8017ZM156.394 24.712C157.52 23.6344 158.089 22.1089 158.089 20.1596C158.089 18.1981 157.52 16.6847 156.394 15.6071C155.268 14.5295 153.682 13.9847 151.636 13.9847H149.166V26.3344H151.636C153.682 26.3344 155.268 25.8017 156.394 24.712Z" fill="black"/>
</svg>
