<svg width="132" height="43" viewBox="0 0 132 43" fill="none" xmlns="http://www.w3.org/2000/svg">
<path d="M11.6337 0V0.18557L10.8629 0.371138V8.59327L11.6337 8.77884V8.96441H7.97946V8.77884L8.7503 8.59327V1.58447L5.7241 9.09288H5.33866L1.41317 1.58447V8.39343L2.44093 8.77884V8.96441H0V8.77884L1.02777 8.39343V0.371138L0.256931 0.18557V0H1.85567C2.09834 0 2.31246 0.0285483 2.48376 0.0856464C2.65505 0.142745 2.82637 0.214117 2.95484 0.314039C3.09758 0.413961 3.21178 0.528159 3.3117 0.65663C3.41162 0.785101 3.49728 0.94212 3.58292 1.09914L6.38072 6.45209L8.5219 1.09914C8.59327 0.913571 8.66466 0.756551 8.76459 0.62808C8.85023 0.499609 8.9644 0.385414 9.09287 0.285492C9.22134 0.18557 9.37839 0.114195 9.56396 0.0713716C9.74952 0.028548 9.9779 0 10.2634 0H11.6337V0Z" fill="black"/>
<path d="M16.202 2.38393C16.7302 2.38393 17.2155 2.4553 17.6295 2.61232C18.0434 2.76934 18.4003 2.99773 18.7001 3.28322C18.9998 3.58299 19.214 3.93985 19.371 4.35381C19.528 4.76777 19.5994 5.25311 19.5994 5.78126C19.5994 6.30942 19.528 6.79476 19.371 7.20872C19.214 7.62268 18.9856 7.97954 18.7001 8.27931C18.4003 8.57907 18.0434 8.79319 17.6295 8.95021C17.2155 9.10723 16.7302 9.17861 16.202 9.17861C15.6739 9.17861 15.1885 9.10723 14.7746 8.95021C14.3606 8.79319 14.0038 8.5648 13.704 8.27931C13.4042 7.97954 13.1901 7.62268 13.0331 7.20872C12.8761 6.79476 12.8047 6.30942 12.8047 5.78126C12.8047 5.25311 12.8761 4.76777 13.0331 4.35381C13.1901 3.93985 13.4185 3.58299 13.704 3.28322C14.0038 2.98346 14.3606 2.76934 14.7746 2.61232C15.1885 2.4553 15.6596 2.38393 16.202 2.38393ZM16.202 8.93594C16.3448 8.93594 16.4875 8.89311 16.6445 8.79319C16.7873 8.69327 16.9157 8.53625 17.0299 8.29358C17.1441 8.05092 17.2441 7.73688 17.3154 7.33719C17.3868 6.92323 17.4296 6.40934 17.4296 5.79554C17.4296 5.16746 17.3868 4.65358 17.3154 4.25389C17.2441 3.8542 17.1441 3.52589 17.0299 3.2975C16.9157 3.0691 16.7873 2.89781 16.6445 2.79789C16.5018 2.69797 16.3591 2.65514 16.202 2.65514C16.0593 2.65514 15.9165 2.69797 15.7595 2.79789C15.6168 2.89781 15.4883 3.05483 15.3741 3.2975C15.2599 3.54016 15.16 3.8542 15.0886 4.25389C15.0172 4.66785 14.9744 5.18173 14.9744 5.79554C14.9744 6.42362 15.0172 6.9375 15.0886 7.33719C15.16 7.73688 15.2599 8.06519 15.3741 8.29358C15.4883 8.52198 15.6168 8.69327 15.7595 8.79319C15.9023 8.87884 16.045 8.93594 16.202 8.93594Z" fill="black"/>
<path d="M25.836 1.52588e-05C26.6068 1.52588e-05 26.9922 0.385427 26.9922 1.15625V8.60756L27.763 8.79313V8.9787H26.6068C26.2928 8.9787 26.0501 8.93588 25.8645 8.83595C25.6789 8.73603 25.5219 8.62184 25.422 8.50764C25.2935 8.36489 25.1936 8.1936 25.1365 8.02231C25.0223 8.2507 24.8796 8.43627 24.7083 8.60756C24.5655 8.75031 24.3657 8.87878 24.123 9.00725C23.8803 9.13572 23.5948 9.19282 23.2665 9.19282C22.8954 9.19282 22.5528 9.12144 22.2387 8.9787C21.9104 8.83595 21.6392 8.62183 21.4108 8.33634C21.1825 8.05085 20.9826 7.69399 20.8542 7.28003C20.7114 6.85179 20.6543 6.36646 20.6543 5.79548C20.6543 5.22449 20.7257 4.73916 20.8542 4.31093C20.9969 3.88269 21.1824 3.5401 21.4394 3.25461C21.682 2.96912 21.9818 2.755 22.3244 2.61226C22.667 2.46951 23.0524 2.39814 23.4807 2.39814C23.7091 2.39814 23.9089 2.42669 24.0945 2.46951C24.28 2.52661 24.437 2.58371 24.5655 2.65508C24.7225 2.72645 24.851 2.8121 24.9652 2.91202V0.413978L24.1944 0.228408V0.0428398H25.836V1.52588e-05ZM24.9367 3.28316C24.8367 3.18324 24.7511 3.09759 24.6369 3.02622C24.537 2.95485 24.4371 2.89775 24.3229 2.84065C24.2087 2.78355 24.0945 2.76928 23.966 2.76928C23.809 2.76928 23.6519 2.8121 23.5092 2.89775C23.3665 2.98339 23.2522 3.12614 23.1381 3.34026C23.0381 3.55437 22.9525 3.86841 22.8954 4.25383C22.8383 4.65351 22.8098 5.15312 22.8098 5.7812C22.8098 6.39501 22.8383 6.88034 22.8954 7.26575C22.9525 7.65117 23.0239 7.95093 23.1238 8.16505C23.2095 8.37917 23.3094 8.53619 23.4378 8.60756C23.552 8.67893 23.6662 8.72176 23.7804 8.72176C23.9803 8.72176 24.1515 8.66466 24.2943 8.56474C24.437 8.46481 24.5512 8.33634 24.6511 8.20787C24.7653 8.05085 24.8653 7.87956 24.9509 7.69399V3.28316H24.9367Z" fill="black"/>
<path d="M32.0605 9.1929C30.9614 9.1929 30.1049 8.89314 29.5054 8.29361C28.8916 7.69408 28.5918 6.85188 28.5918 5.79556C28.5918 5.2674 28.6632 4.78207 28.8202 4.36811C28.9772 3.95415 29.1914 3.59728 29.4626 3.29752C29.7338 2.99775 30.0621 2.78364 30.4618 2.62662C30.8472 2.4696 31.2754 2.39822 31.7465 2.39822C32.2318 2.39822 32.6601 2.4696 33.0312 2.59807C33.4166 2.74081 33.7306 2.92638 34.0019 3.15478C34.2731 3.38317 34.4729 3.65438 34.6157 3.96842C34.7584 4.28246 34.8298 4.61078 34.8298 4.96764C34.8298 5.08184 34.8298 5.19603 34.8155 5.28168C34.8012 5.36733 34.787 5.45298 34.7727 5.52435C34.7441 5.61 34.7298 5.68137 34.7013 5.73847C34.3302 5.80984 33.9305 5.88121 33.5022 5.92403C33.1454 5.98113 32.7314 6.02396 32.2604 6.0525C31.7893 6.08105 31.304 6.1096 30.7901 6.1096C30.7901 6.63776 30.8329 7.08027 30.9043 7.43714C30.9756 7.794 31.0898 8.07949 31.2183 8.27933C31.3611 8.49345 31.5181 8.6362 31.7036 8.72184C31.8892 8.80749 32.1034 8.85031 32.3175 8.85031C32.5744 8.85031 32.8171 8.80749 33.0454 8.70757C33.2738 8.60765 33.4737 8.49345 33.6307 8.33643C33.802 8.17941 33.9305 7.99384 34.0304 7.794C34.1303 7.59416 34.1731 7.39431 34.1731 7.18019H34.4872C34.4872 7.43714 34.4301 7.6798 34.3159 7.92247C34.2017 8.16513 34.0304 8.37925 33.8163 8.56482C33.6022 8.75039 33.3452 8.89314 33.0454 9.00733C32.76 9.1358 32.4316 9.1929 32.0605 9.1929ZM30.7758 5.78129C31.0613 5.78129 31.3182 5.78129 31.5466 5.76702C31.775 5.75274 31.9606 5.73846 32.1176 5.72419C32.3032 5.70992 32.4459 5.68137 32.5744 5.66709C32.5887 5.58144 32.6172 5.48152 32.6315 5.3816C32.6458 5.28168 32.6601 5.18176 32.6743 5.06756C32.6886 4.95336 32.6886 4.8249 32.6886 4.69642C32.6886 4.31101 32.66 3.9827 32.6029 3.72576C32.5458 3.46881 32.4745 3.2547 32.3745 3.0834C32.2889 2.92638 32.189 2.79791 32.0605 2.74081C31.932 2.68371 31.8321 2.64089 31.7179 2.64089C31.6037 2.64089 31.4895 2.68371 31.3753 2.76936C31.2612 2.85501 31.1612 3.01203 31.0613 3.22615C30.9757 3.45454 30.89 3.76858 30.8329 4.18254C30.7758 4.5965 30.7758 5.12466 30.7758 5.78129Z" fill="black"/>
<path d="M40.2265 2.8264C39.9695 2.8264 39.7412 2.8835 39.5413 2.98342C39.3415 3.08334 39.1702 3.21181 39.0274 3.34028C38.8704 3.4973 38.7419 3.6686 38.6134 3.85417V8.60759L39.3843 8.79315V8.97873H35.7871V8.79315L36.5579 8.60759V2.95487L35.7871 2.7693V2.58373H36.9433C37.2431 2.58373 37.4858 2.64083 37.6856 2.74075C37.8712 2.84067 38.0282 2.95487 38.1424 3.06907C38.2709 3.21181 38.3708 3.36883 38.4279 3.54013C38.5564 3.35456 38.7134 3.18326 38.8989 3.02624C39.056 2.89777 39.2558 2.78358 39.4985 2.66938C39.7412 2.55518 40.0124 2.51236 40.3407 2.51236C40.7975 2.51236 41.1401 2.62655 41.3685 2.8264C41.5969 3.04052 41.6967 3.34028 41.6967 3.7257C41.6967 4.01119 41.6111 4.25385 41.4398 4.42515C41.2685 4.59644 41.0259 4.68209 40.7404 4.68209C40.669 4.68209 40.6119 4.68209 40.5405 4.68209C40.4691 4.68209 40.4263 4.66781 40.3835 4.66781C40.3264 4.65354 40.2693 4.65354 40.2265 4.62499V2.8264V2.8264Z" fill="black"/>
<path d="M47.2208 4.49655C47.2208 4.21106 47.1923 3.95412 47.1352 3.74C47.0781 3.52588 47.0067 3.35459 46.9068 3.22612C46.8212 3.08337 46.7212 2.98345 46.5928 2.92635C46.4786 2.86925 46.3643 2.82643 46.2501 2.82643C46.0503 2.82643 45.879 2.88353 45.7363 2.98345C45.5935 3.08337 45.4651 3.21184 45.3794 3.34031C45.2652 3.49733 45.1796 3.66863 45.0939 3.8542V8.60762L45.8647 8.79318V8.97876H42.2676V8.79318L43.0384 8.60762V2.9549L42.2676 2.76933V2.58376H43.4238C43.7236 2.58376 43.9662 2.64086 44.1661 2.74078C44.3516 2.8407 44.5087 2.9549 44.6229 3.0691C44.7513 3.21184 44.8512 3.36886 44.9083 3.54016C45.0225 3.32604 45.1653 3.12619 45.3366 2.9549C45.4793 2.81215 45.6792 2.68369 45.9076 2.55521C46.136 2.42674 46.4357 2.36964 46.7783 2.36964C47.1494 2.36964 47.4921 2.42674 47.7918 2.55521C48.1059 2.66941 48.3628 2.84071 48.5769 3.02627C48.791 3.22612 48.9623 3.44023 49.0908 3.69718C49.2193 3.95412 49.2763 4.21106 49.2763 4.48227V8.59334L50.0472 8.77891V8.96448H48.3771C47.6063 8.96448 47.2208 8.57907 47.2208 7.80824V4.49655V4.49655Z" fill="black"/>
<path d="M1.35547 18.0002V17.472H11.2762V18.0002L9.19217 18.5284V29.3056H16.672V18.5284L14.5879 18.0002V17.472H24.5088V18.0002L22.4247 18.5284V40.7966L24.5088 41.3248V41.853H14.5879V41.3105L16.672 40.7824V30.1764H9.19217V40.7824L11.2762 41.3105V41.8387H1.35547V41.3105L3.43954 40.7824V18.5141L1.35547 18.0002Z" fill="black"/>
<path d="M36.8424 23.9099C38.2842 23.9099 39.5689 24.124 40.7108 24.5379C41.8528 24.9519 42.8092 25.5657 43.6085 26.3651C44.4079 27.1645 45.0217 28.1351 45.4357 29.2771C45.8496 30.4191 46.0638 31.7038 46.0638 33.1455C46.0638 34.5872 45.8496 35.8719 45.4357 37.0139C45.0217 38.1559 44.4079 39.1122 43.6085 39.9116C42.8092 40.711 41.8385 41.3248 40.7108 41.7388C39.5689 42.1527 38.2842 42.3668 36.8424 42.3668C35.4007 42.3668 34.116 42.1527 32.974 41.7388C31.8321 41.3248 30.8757 40.711 30.0763 39.9116C29.2769 39.1122 28.6631 38.1416 28.2492 37.0139C27.8352 35.8719 27.6211 34.5872 27.6211 33.1455C27.6211 31.7038 27.8352 30.4191 28.2492 29.2771C28.6631 28.1351 29.2769 27.1787 30.0763 26.3651C30.8757 25.5514 31.8464 24.9519 32.974 24.5379C34.116 24.124 35.4007 23.9099 36.8424 23.9099ZM36.8424 41.6531C37.2421 41.6531 37.6276 41.5246 38.0272 41.2677C38.4269 41.0108 38.7695 40.5683 39.0835 39.9259C39.3976 39.2835 39.6545 38.4128 39.8544 37.3137C40.0542 36.2145 40.1541 34.8156 40.1541 33.1169C40.1541 31.4183 40.0542 30.0194 39.8544 28.9202C39.6545 27.8211 39.3976 26.9503 39.0835 26.308C38.7695 25.6656 38.4127 25.2231 38.0272 24.9662C37.6418 24.7092 37.2421 24.5808 36.8424 24.5808C36.4427 24.5808 36.0574 24.7092 35.6577 24.9662C35.258 25.2231 34.9154 25.6656 34.6013 26.308C34.2873 26.9503 34.0304 27.8211 33.8305 28.9202C33.6307 30.0194 33.5307 31.4183 33.5307 33.1169C33.5307 34.8156 33.6307 36.2145 33.8305 37.3137C34.0304 38.4128 34.2873 39.2835 34.6013 39.9259C34.9154 40.5683 35.2723 41.0108 35.6577 41.2677C36.0574 41.5246 36.4427 41.6531 36.8424 41.6531Z" fill="black"/>
<path d="M72.1443 29.6482C72.1443 28.8203 72.073 28.1065 71.9302 27.5498C71.7875 26.9931 71.6162 26.5221 71.3878 26.1652C71.1594 25.8084 70.9167 25.5514 70.6598 25.3801C70.3885 25.2231 70.1316 25.1374 69.8747 25.1374C69.4322 25.1374 69.0467 25.2802 68.7042 25.5657C68.3616 25.8512 68.0761 26.1795 67.8191 26.5221C67.5479 26.936 67.291 27.4071 67.0911 27.9067V40.7823L69.1895 41.3105V41.8387H59.4542V41.3105L61.5384 40.7823V29.6482C61.5384 28.8203 61.4669 28.1065 61.3242 27.5498C61.1815 26.9931 61.0102 26.5221 60.7818 26.1652C60.5534 25.8084 60.3107 25.5514 60.0538 25.3801C59.7826 25.2231 59.5256 25.1374 59.2687 25.1374C58.8262 25.1374 58.4408 25.2802 58.0982 25.5657C57.7556 25.8512 57.4701 26.1795 57.2131 26.5221C56.9276 26.936 56.685 27.4071 56.4852 27.9067V40.7823L58.5692 41.3105V41.8387H48.834V41.3105L50.9181 40.7823V25.48L48.834 24.9519V24.4237H51.9601C52.7738 24.4237 53.4447 24.5665 53.9585 24.8377C54.4867 25.1089 54.8864 25.4229 55.2005 25.737C55.543 26.1367 55.8 26.5649 55.9713 27.0217C56.271 26.4364 56.6422 25.9225 57.0847 25.4515C57.4844 25.0518 57.9697 24.6949 58.5407 24.3666C59.126 24.0383 59.8254 23.8813 60.6676 23.8813C62.0522 23.8813 63.2655 24.1953 64.2648 24.8091C65.2782 25.4229 66.0491 26.2223 66.5773 27.193C66.877 26.5934 67.2482 26.051 67.6907 25.5514C68.0904 25.1374 68.5757 24.752 69.1467 24.4094C69.7319 24.0669 70.4314 23.8813 71.2736 23.8813C72.2299 23.8813 73.0864 24.0383 73.8858 24.3381C74.6709 24.6378 75.3561 25.0518 75.9271 25.58C76.498 26.1081 76.9405 26.7076 77.2546 27.4071C77.5686 28.1066 77.7257 28.8488 77.7257 29.6339V40.7681L79.8097 41.2962V41.8244H75.2847C73.2006 41.8244 72.1586 40.7823 72.1586 38.6983V29.6482H72.1443Z" fill="black"/>
<path d="M91.2852 42.3526C88.3161 42.3526 86.0037 41.5389 84.3621 39.8973C82.7205 38.2558 81.8926 36.0147 81.8926 33.1312C81.8926 31.6895 82.1067 30.4048 82.5207 29.2628C82.9346 28.1208 83.5199 27.1644 84.2622 26.3508C85.0044 25.5514 85.9037 24.9376 86.9601 24.5237C88.0164 24.1097 89.1726 23.8956 90.4145 23.8956C91.7135 23.8956 92.884 24.0812 93.9118 24.4523C94.9395 24.8234 95.8245 25.323 96.5383 25.9511C97.252 26.5792 97.8087 27.3215 98.1941 28.1637C98.5795 29.0059 98.7651 29.9052 98.7651 30.8616C98.7651 31.1899 98.7508 31.4754 98.708 31.718C98.6652 31.9607 98.6366 32.1748 98.5795 32.3604C98.5081 32.5888 98.451 32.7886 98.4082 32.9456C97.3805 33.1598 96.3099 33.3311 95.1679 33.4738C94.1973 33.6165 93.0695 33.7307 91.7991 33.8449C90.5287 33.9449 89.1869 34.002 87.8023 34.002C87.8023 35.4437 87.9022 36.6427 88.1163 37.5991C88.3304 38.5555 88.6159 39.3264 88.987 39.8973C89.3582 40.4683 89.8007 40.868 90.3145 41.1107C90.8284 41.3533 91.3852 41.4818 91.9847 41.4818C92.6841 41.4818 93.3408 41.3533 93.9546 41.0964C94.5684 40.8395 95.0965 40.4969 95.5533 40.0686C96.0101 39.6404 96.367 39.1551 96.6382 38.6126C96.9094 38.0702 97.0379 37.5135 97.0379 36.9568H97.9086C97.9086 37.6562 97.7516 38.3271 97.4376 38.9695C97.1235 39.6261 96.681 40.1971 96.0958 40.6967C95.5105 41.1963 94.8253 41.596 94.0117 41.8958C93.1838 42.1955 92.2702 42.3526 91.2852 42.3526ZM87.8023 33.1312C88.5874 33.1312 89.2868 33.1169 89.8863 33.0741C90.4859 33.0313 90.9998 33.0027 91.4137 32.9599C91.899 32.9171 92.313 32.86 92.6699 32.7886C92.7127 32.5602 92.7698 32.3033 92.8412 32.0178C92.884 31.7609 92.9268 31.4754 92.9553 31.1613C92.9839 30.8473 93.0125 30.519 93.0125 30.1764C93.0125 29.1343 92.9268 28.2636 92.7698 27.5499C92.6127 26.8361 92.3986 26.2652 92.156 25.8226C91.9133 25.3801 91.6278 25.0661 91.3281 24.8805C91.014 24.695 90.7 24.595 90.4002 24.595C90.1004 24.595 89.7864 24.7092 89.4724 24.9233C89.1583 25.1517 88.8871 25.5657 88.6444 26.1795C88.4018 26.7933 88.2019 27.6641 88.0307 28.7775C87.8879 29.8909 87.8023 31.3469 87.8023 33.1312Z" fill="black"/>
<path d="M115.853 41.4818V27.3643L103.377 17.4863V41.4818H115.853Z" fill="black"/>
<path d="M131.282 41.4818V27.3643L119.006 17.4863V41.4818H131.282Z" fill="black"/>
</svg>
