<svg width="90" height="90" viewBox="0 0 90 90" fill="none" xmlns="http://www.w3.org/2000/svg">
<path d="M61.5 79.5H58.5V72V15C58.5 14.7 58.35 14.25 58.2 14.1L53.85 1.05C53.7 0.45 53.1 0 52.5 0C51.9 0 51.3 0.45 51.15 1.05L46.8 14.1C46.65 14.4 46.5 14.7 46.5 15V72V88.5C46.5 89.4 47.1 90 48 90H57C57.9 90 58.5 89.4 58.5 88.5V82.5H63C63.9 82.5 64.5 81.9 64.5 81V36H61.5V79.5ZM49.5 16.5H55.5V70.5H49.5V16.5ZM52.5 6.3L54.9 13.5H50.1L52.5 6.3ZM55.5 87H49.5V73.5H55.5V87Z" fill="#cda274"/>
<path d="M88.5 0H72C71.1 0 70.5 0.6 70.5 1.5V88.5C70.5 89.4 71.1 90 72 90H88.5C89.4 90 90 89.4 90 88.5V1.5C90 0.6 89.4 0 88.5 0ZM87 87H73.5V76.5H81V73.5H73.5V61.5H81V58.5H73.5V46.5H81V43.5H73.5V31.5H81V28.5H73.5V16.5H81V13.5H73.5V3H87V87Z" fill="#cda274"/>
<path d="M21 14.9997C9.45 14.9997 0 24.4497 0 35.9997C0 44.0997 4.65 51.4497 12 54.8997V65.9997V73.4997C12 74.3997 12.6 74.9997 13.5 74.9997H19.5V79.4997H22.5V74.9997H28.5C29.4 74.9997 30 74.3997 30 73.4997V65.9997V54.8997C37.35 51.4497 42 44.0997 42 35.9997C42 24.4497 32.55 14.9997 21 14.9997ZM27 71.9997H15V67.4997H27V71.9997ZM27.9 52.6497C27.3 52.7997 27 53.3997 27 53.9997V64.4997H15V61.4997H22.5V58.4997H15V53.9997C15 53.3997 14.7 52.7997 14.1 52.6497C7.35 49.7997 3 43.1997 3 35.9997C3 26.0997 11.1 17.9997 21 17.9997C30.9 17.9997 39 26.0997 39 35.9997C39 43.1997 34.65 49.7997 27.9 52.6497Z" fill="#cda274"/>
<path d="M24.4512 27.4505L21.0012 30.9005L17.5512 27.4505L15.4512 29.5505L19.5012 33.6005V49.5005H22.5012V33.6005L26.5512 29.5505L24.4512 27.4505Z" fill="#cda274"/>
</svg>
